<svg enable-background="new 0 0 1000 1000" viewBox="0 0 1000 1000" xml:space="preserve" xmlns="http://www.w3.org/2000/svg">
<g><g transform="translate(0 511) scale(.1 -.1)">
<path d="m1128 4489.2c-86.5-21.1-157.6-73-205.6-153.7l-44.2-69.2-5.8-1666-3.8-1667.9h422.8v2817l44.2 84.5c23.1 46.1 67.3 101.8 96.1 123 53.8 40.4 59.6 40.4 3057.2 46.1l3003.4 3.8 63.4-42.3c34.6-25 82.6-69.2 103.8-98 40.3-53.8 40.3-67.3 46.1-1504.6l3.8-1448.9h422.8v1658.3c0 1566.1-1.9 1660.2-36.5 1733.3-19.2 42.3-53.8 92.2-74.9 111.4-101.8 92.2 23.1 88.4-3510.7 88.4-1829.4-1.7-3351.3-7.5-3382.1-15.2z" fill="#4b6cc1"/><path d="m138.4 586.5c-38.4-38.4-38.4-63.4-38.4-1792.8 0-1485.4 3.8-1760.2 26.9-1792.8 26.9-34.6 59.6-36.5 1026.1-36.5 816.7 0 1003.1 3.8 1028 26.9 30.7 23 32.7 172.9 32.7 1800.5v1773.6l-42.3 28.8c-38.4 26.9-167.1 30.8-1018.4 30.8-951.2 0-978.1-2-1014.6-38.5zm1287.5-172.9v-57.6h-538v115.2h538v-57.6zm611-253.7c32.7-32.7 32.7-2342.4 0-2375.1-17.3-17.3-240.2-23.1-883.9-23.1-830.1 0-860.9 1.9-880.1 36.5-11.5 25-19.2 430.4-19.2 1181.8 0 1012.7 3.8 1145.2 30.7 1172.1s132.6 30.7 880.1 30.7c634.2 0.2 855.1-5.5 872.4-22.9zm-795.5-2578.7c207.5-86.5 192.2-370.9-25-436.2-136.4-40.4-290.2 76.9-290.2 222.9 0 80.7 65.3 178.7 140.3 211.4 78.8 34.6 96.1 34.6 174.9 1.9z"/><path d="m6568 571.2c-96.1-3.8-184.5-15.4-197.9-26.9-21.1-15.4-25-468.9-25-2398.1 0-2188.7 1.9-2380.8 32.7-2403.9 25-23.1 320.9-26.9 1748.6-26.9 1679.4 0 1719.8 0 1746.7 36.5 23.1 32.6 26.9 390.1 26.9 2396.2 0 2119.5-3.8 2361.6-30.7 2388.5-21.1 23.1-71.1 30.7-186.4 32.7-578.4 3.8-2974.6 5.7-3114.9 1.9zm3016.9-338.2c36.5-26.9 36.5-71.1 42.3-1806.3l3.8-1781.3-46.1-46.1-48-48h-1418.2c-1252.9 0-1423.9 3.8-1462.3 30.7l-42.3 28.8v3589.5l42.3 28.8c38.4 26.9 209.4 30.7 1466.2 30.7 1199 0.1 1429.6-3.8 1462.3-26.8zm-1366.3-3862.4c130.7-55.7 182.5-226.7 105.7-351.7-126.8-211.4-443.9-126.8-449.7 121.1-1.9 98 48 174.9 144.1 222.9 78.9 42.3 113.5 42.3 199.9 7.7z"/><path d="m2502-797v-538h3516.4v1076h-3516.4v-538z"/><path d="m3635.7-1936.5v-313.2l-299.8-1.9c-167.2 0-307.5-9.6-319-21.1-9.6-9.6-15.4-51.9-11.5-92.2 3.8-59.6 15.4-76.9 53.8-86.5 63.4-17.3 2818.9-17.3 2882.3 0 40.4 11.5 50 26.9 53.8 94.1 7.7 105.7-11.5 111.5-355.5 107.6l-274.8-3.8v630.2h-1729.4v-313.2z"/></g></g>
</svg>
