<svg enable-background="new 0 0 64 64" viewBox="0 0 64 64" xml:space="preserve" xmlns="http://www.w3.org/2000/svg"><g><path d="m61 6.167h-58c-1.65 0-3 1.35-3 3v45.667c0 1.65 1.35 3 3 3h58c1.65 0 3-1.35 3-3v-45.667c0-1.65-1.35-3-3-3zm-35.747 6.875h31.863v5.322h-35.339l3.476-5.322zm11.973 17.471v-3.869l13.851 5.99v3.304l-13.851 6.032v-3.897l9.666-3.8-9.666-3.76zm-1.281-6.789l-5.053 20.874h-2.849l4.997-20.874h2.905zm-9.184 14.334v3.897l-13.838-6.018v-3.332l13.838-5.99v3.925l-9.652 3.69 9.652 3.828zm-9.491-24.073c0.91 0 1.648 0.737 1.648 1.646s-0.738 1.646-1.648 1.646-1.648-0.737-1.648-1.646c-1e-3 -0.909 0.737-1.646 1.648-1.646zm-4.369 0c0.91 0 1.648 0.737 1.648 1.646s-0.738 1.646-1.648 1.646-1.648-0.737-1.648-1.646 0.738-1.646 1.648-1.646zm-4.369 0c0.91 0 1.648 0.737 1.648 1.646s-0.738 1.646-1.648 1.646-1.648-0.737-1.648-1.646 0.738-1.646 1.648-1.646zm-6.29 40.089l4.525-3.437h7.954l-4.51 3.437h-7.969zm11.432 0l4.525-3.437h27.601l4.525 3.437h-36.651zm40.114 0l-4.51-3.437h7.954l4.526 3.437h-7.97z"/></g></svg>
