<svg height="32" viewBox="0 0 32 32.000001" width="32"><g transform="translate(0,-1020.3622)"><path fill="#4b6cc1" d="M 3.5 3 A 0.50005 0.50005 0 0 0 3 3.5 L 3 10.5 L 3 28.5 A 0.50005 0.50005 0 0 0 3.5 29 L 10.5 29 L 28.5 29 A 0.50005 0.50005 0 0 0 29 28.5 L 29 21.5 L 29 3.5 A 0.50005 0.50005 0 0 0 28.5 3 L 21.5 3 L 3.5 3 z M 4 4 L 21 4 L 21 10 L 10.5 10 L 4 10 L 4 4 z M 22 4 L 28 4 L 28 21 L 22 21 L 22 10.5 L 22 4 z M 4 11 L 10 11 L 10 21.5 L 10 28 L 4 28 L 4 11 z M 11 11 L 21 11 L 21 21 L 11 21 L 11 11 z M 11 22 L 21.5 22 L 28 22 L 28 28 L 11 28 L 11 22 z " transform="translate(0,1020.3622)"/></g></svg>
