<?xml version="1.0" encoding="iso-8859-1"?>
<!-- Generator: Adobe Illustrator 19.1.0, SVG Export Plug-In . SVG Version: 6.00 Build 0)  -->
<svg version="1.1" id="Capa_1" xmlns="http://www.w3.org/2000/svg" xmlns:xlink="http://www.w3.org/1999/xlink" x="0px" y="0px"
	 viewBox="0 0 63 63" style="enable-background:new 0 0 63 63;" xml:space="preserve">
<g>
	<g id="group-36svg">
		<path id="path-1_28_" d="M32.056,46.929c-8.502,0-15.418-6.921-15.418-15.429c0-8.507,6.916-15.429,15.418-15.429
			S47.474,22.993,47.474,31.5C47.474,40.008,40.558,46.929,32.056,46.929z M32.056,19.073c-6.847,0-12.418,5.575-12.418,12.427
			s5.571,12.427,12.418,12.427c6.848,0,12.418-5.575,12.418-12.427S38.904,19.073,32.056,19.073z"/>
		<path id="path-2_28_" d="M48.948,44.351c-2.508,0-4.97-0.67-7.12-1.938c-0.714-0.42-0.952-1.34-0.532-2.055
			c0.421-0.714,1.342-0.952,2.053-0.532c1.691,0.996,3.626,1.523,5.599,1.523c6.094,0,11.052-4.962,11.052-11.06
			c0-6.097-4.958-11.059-11.052-11.059c-2.342,0-4.579,0.724-6.47,2.093c-0.672,0.485-1.609,0.335-2.094-0.337
			c-0.486-0.671-0.336-1.61,0.336-2.096c2.405-1.741,5.25-2.662,8.228-2.662C56.696,16.228,63,22.536,63,30.289
			S56.696,44.351,48.948,44.351z"/>
		<path id="path-3_28_" d="M14.74,46.251C6.612,46.251,0,39.634,0,31.5s6.612-14.751,14.74-14.751c3.028,0,5.938,0.912,8.416,2.639
			c0.68,0.473,0.847,1.409,0.374,2.089c-0.475,0.681-1.409,0.847-2.089,0.374c-1.972-1.374-4.289-2.1-6.701-2.1
			C8.266,19.751,3,25.022,3,31.5s5.266,11.749,11.74,11.749c2.479,0,4.848-0.763,6.852-2.208c0.674-0.484,1.61-0.332,2.094,0.341
			c0.485,0.673,0.332,1.611-0.34,2.095C20.828,45.292,17.852,46.251,14.74,46.251z"/>
		<path id="path-4_27_" d="M30.399,30.38l6.56-6.149l-3.245,8.389c-0.409,1.057-1.597,1.582-2.653,1.173
			c-1.057-0.409-1.582-1.598-1.173-2.655C30.002,30.843,30.184,30.584,30.399,30.38z"/>
		<path id="path-5_25_" d="M48.66,29.703l3.983-5.55l-1.222,6.723c-0.152,0.836-0.953,1.39-1.788,1.238
			c-0.836-0.151-1.39-0.953-1.237-1.789C48.437,30.095,48.533,29.881,48.66,29.703z"/>
		<path id="path-6_20_" d="M13.527,32.906l-6.145-3.9l7.195,1.088c0.837,0.127,1.413,0.908,1.287,1.746
			c-0.127,0.837-0.908,1.414-1.745,1.287C13.904,33.095,13.7,33.015,13.527,32.906z"/>
	</g>
</g>
<g>
</g>
<g>
</g>
<g>
</g>
<g>
</g>
<g>
</g>
<g>
</g>
<g>
</g>
<g>
</g>
<g>
</g>
<g>
</g>
<g>
</g>
<g>
</g>
<g>
</g>
<g>
</g>
<g>
</g>
</svg>
