<?xml version="1.0" encoding="iso-8859-1"?>
<!-- Generator: Adobe Illustrator 16.0.0, SVG Export Plug-In . SVG Version: 6.00 Build 0)  -->
<!DOCTYPE svg PUBLIC "-//W3C//DTD SVG 1.1//EN" "http://www.w3.org/Graphics/SVG/1.1/DTD/svg11.dtd">
<svg version="1.1" id="Capa_1" xmlns="http://www.w3.org/2000/svg" xmlns:xlink="http://www.w3.org/1999/xlink" x="0px" y="0px"
	 width="477.909px" height="477.909px" viewBox="0 0 477.909 477.909" style="enable-background:new 0 0 477.909 477.909;"
	 xml:space="preserve">
<g>
	<g>
		<g>
			<path d="M452.872,151.148l-9.629,3.986c-3.252-4.301-7.107-8.144-11.346-11.327l3.991-9.667c1.213-2.924-0.183-6.289-3.104-7.498
				l-15.896-6.59c-2.922-1.208-6.277,0.178-7.491,3.102l-4.036,9.663c-5.246-0.747-10.684-0.766-16.027-0.014l-3.985-9.625
				c-1.214-2.929-4.499-4.343-7.43-3.129l-15.901,6.585c-2.917,1.209-4.251,4.534-3.033,7.465l3.985,9.625
				c-4.303,3.249-8.144,7.11-11.327,11.351l-9.66-3.993c-2.932-1.213-6.292,0.182-7.505,3.108l-6.59,15.898
				c-1.214,2.926,0.177,6.279,3.099,7.49l9.661,4.028c-0.747,5.248-0.756,10.69-0.019,16.029l-9.624,3.986
				c-2.922,1.209-4.34,4.501-3.127,7.433l6.581,15.889c1.213,2.931,4.536,4.254,7.472,3.041l9.628-3.986
				c3.253,4.306,7.099,8.144,11.341,11.332l-3.985,9.666c-1.214,2.931,0.178,6.291,3.104,7.505l15.892,6.59
				c2.931,1.213,6.282-0.178,7.495-3.099l4.032-9.666c5.246,0.747,10.688,0.756,16.031,0.019l3.986,9.629
				c1.209,2.921,4.499,4.335,7.425,3.122l15.896-6.581c2.927-1.213,4.257-4.541,3.043-7.472l-3.985-9.619
				c4.298-3.257,8.139-7.11,11.322-11.35l9.665,3.993c2.927,1.213,6.287-0.182,7.5-3.108l6.59-15.889
				c1.214-2.931-0.173-6.284-3.099-7.495l-9.67-4.032c0.756-5.244,0.765-10.686,0.023-16.029l9.623-3.986
				c2.931-1.213,4.345-4.501,3.132-7.432l-6.581-15.889C459.126,151.262,455.798,149.939,452.872,151.148z M408.371,216.062
				c-14.631,6.06-31.404-0.889-37.463-15.523c-6.066-14.633,0.883-31.402,15.514-37.462c14.636-6.06,31.409,0.889,37.468,15.523
				C429.952,193.229,423.003,210.002,408.371,216.062z"/>
			<path d="M383.062,274.742v126.702H172.779V81.245h210.282v23.03h23.896V38.233C406.957,17.119,389.838,0,368.725,0H187.117
				c-21.114,0-38.233,17.119-38.233,38.233v401.443c0,21.114,17.119,38.232,38.233,38.232h181.608
				c21.113,0,38.232-17.118,38.232-38.232V274.742H383.062z M258.964,43.012h38.232c2.642,0,4.779,2.143,4.779,4.779
				s-2.138,4.779-4.779,4.779h-38.232c-2.642,0-4.779-2.143-4.779-4.779S256.322,43.012,258.964,43.012z M276.484,455.283
				c-10.558,0-19.116-8.56-19.116-19.116s8.559-19.116,19.116-19.116c10.557,0,19.116,8.56,19.116,19.116
				S287.041,455.283,276.484,455.283z"/>
		</g>
		<rect x="10.554" y="122" width="114.698" height="23.896"/>
		<rect x="39.229" y="169.791" width="86.023" height="23.896"/>
		<rect x="96.578" y="217.582" width="28.674" height="23.894"/>
	</g>
</g>
<g>
</g>
<g>
</g>
<g>
</g>
<g>
</g>
<g>
</g>
<g>
</g>
<g>
</g>
<g>
</g>
<g>
</g>
<g>
</g>
<g>
</g>
<g>
</g>
<g>
</g>
<g>
</g>
<g>
</g>
</svg>
