<?xml version="1.0" encoding="utf-8"?>
<!-- Svg Vector Icons : http://www.onlinewebfonts.com/icon -->
<!DOCTYPE svg PUBLIC "-//W3C//DTD SVG 1.1//EN" "http://www.w3.org/Graphics/SVG/1.1/DTD/svg11.dtd">
<svg version="1.1" xmlns="http://www.w3.org/2000/svg" xmlns:xlink="http://www.w3.org/1999/xlink" x="0px" y="0px" viewBox="0 0 1000 1000" enable-background="new 0 0 1000 1000" xml:space="preserve">
<metadata> Svg Vector Icons : http://www.onlinewebfonts.com/icon </metadata>
<g><g transform="translate(0.000000,511.000000) scale(0.100000,-0.100000)"><path d="M1128,4489.2c-86.5-21.1-157.6-73-205.6-153.7l-44.2-69.2l-5.8-1666l-3.8-1667.9H1080h211.4v1408.5v1408.5l44.2,84.5c23.1,46.1,67.3,101.8,96.1,123c53.8,40.4,59.6,40.4,3057.2,46.1l3003.4,3.8l63.4-42.3c34.6-25,82.6-69.2,103.8-98c40.3-53.8,40.3-67.3,46.1-1504.6l3.8-1448.9h211.4h211.4v1658.3c0,1566.1-1.9,1660.2-36.5,1733.3c-19.2,42.3-53.8,92.2-74.9,111.4c-101.8,92.2,23.1,88.4-3510.7,88.4C2680.7,4502.7,1158.8,4496.9,1128,4489.2z"/><path d="M138.4,586.5C100,548.1,100,523.1,100-1206.3c0-1485.4,3.8-1760.2,26.9-1792.8c26.9-34.6,59.6-36.5,1026.1-36.5c816.7,0,1003.1,3.8,1028,26.9c30.7,23,32.7,172.9,32.7,1800.5V565.4l-42.3,28.8C2133,621.1,2004.3,625,1153,625C201.8,625,174.9,623,138.4,586.5z M1425.9,413.6V356h-269h-269v57.6v57.6h269h269V413.6z M2036.9,159.9c32.7-32.7,32.7-2342.4,0-2375.1c-17.3-17.3-240.2-23.1-883.9-23.1c-830.1,0-860.9,1.9-880.1,36.5c-11.5,25-19.2,430.4-19.2,1181.8c0,1012.7,3.8,1145.2,30.7,1172.1c26.9,26.9,132.6,30.7,880.1,30.7C1798.7,183,2019.6,177.3,2036.9,159.9z M1241.4-2418.8c207.5-86.5,192.2-370.9-25-436.2c-136.4-40.4-290.2,76.9-290.2,222.9c0,80.7,65.3,178.7,140.3,211.4C1145.3-2386.1,1162.6-2386.1,1241.4-2418.8z"/><path d="M6568,571.2c-96.1-3.8-184.5-15.4-197.9-26.9c-21.1-15.4-25-468.9-25-2398.1c0-2188.7,1.9-2380.8,32.7-2403.9c25-23.1,320.9-26.9,1748.6-26.9c1679.4,0,1719.8,0,1746.7,36.5c23.1,32.6,26.9,390.1,26.9,2396.2c0,2119.5-3.8,2361.6-30.7,2388.5c-21.1,23.1-71.1,30.7-186.4,32.7C9104.5,573.1,6708.3,575,6568,571.2z M9584.9,233c36.5-26.9,36.5-71.1,42.3-1806.3l3.8-1781.3l-46.1-46.1l-48-48H8118.7c-1252.9,0-1423.9,3.8-1462.3,30.7l-42.3,28.8v1794.7V200.3l42.3,28.8c38.4,26.9,209.4,30.7,1466.2,30.7C9321.6,259.9,9552.2,256,9584.9,233z M8218.6-3629.4c130.7-55.7,182.5-226.7,105.7-351.7c-126.8-211.4-443.9-126.8-449.7,121.1c-1.9,98,48,174.9,144.1,222.9C8097.6-3594.8,8132.2-3594.8,8218.6-3629.4z"/><path d="M2502-797v-538h1758.2h1758.2v538v538H4260.2H2502V-797z"/><path d="M3635.7-1936.5v-313.2l-299.8-1.9c-167.2,0-307.5-9.6-319-21.1c-9.6-9.6-15.4-51.9-11.5-92.2c3.8-59.6,15.4-76.9,53.8-86.5c63.4-17.3,2818.9-17.3,2882.3,0c40.4,11.5,50,26.9,53.8,94.1c7.7,105.7-11.5,111.5-355.5,107.6l-274.8-3.8v315.1v315.1h-864.7h-864.7V-1936.5z"/></g></g>
</svg>