<?xml version="1.0" ?><svg height="32" id="svg4050" version="1.1" viewBox="0 0 32 32.000001" width="32" xmlns="http://www.w3.org/2000/svg" xmlns:cc="http://creativecommons.org/ns#" xmlns:dc="http://purl.org/dc/elements/1.1/" xmlns:inkscape="http://www.inkscape.org/namespaces/inkscape" xmlns:rdf="http://www.w3.org/1999/02/22-rdf-syntax-ns#" xmlns:sodipodi="http://sodipodi.sourceforge.net/DTD/sodipodi-0.dtd" xmlns:svg="http://www.w3.org/2000/svg"><defs id="defs4052"/><g id="layer1" transform="translate(0,-1020.3622)"><path d="M 3.5 3 A 0.50005 0.50005 0 0 0 3 3.5 L 3 10.5 L 3 28.5 A 0.50005 0.50005 0 0 0 3.5 29 L 10.5 29 L 28.5 29 A 0.50005 0.50005 0 0 0 29 28.5 L 29 21.5 L 29 3.5 A 0.50005 0.50005 0 0 0 28.5 3 L 21.5 3 L 3.5 3 z M 4 4 L 21 4 L 21 10 L 10.5 10 L 4 10 L 4 4 z M 22 4 L 28 4 L 28 21 L 22 21 L 22 10.5 L 22 4 z M 4 11 L 10 11 L 10 21.5 L 10 28 L 4 28 L 4 11 z M 11 11 L 21 11 L 21 21 L 11 21 L 11 11 z M 11 22 L 21.5 22 L 28 22 L 28 28 L 11 28 L 11 22 z " id="rect4477" style="color:#000000;font-style:normal;font-variant:normal;font-weight:normal;font-stretch:normal;font-size:medium;line-height:normal;font-family:sans-serif;text-indent:0;text-align:start;text-decoration:none;text-decoration-line:none;text-decoration-style:solid;text-decoration-color:#000000;letter-spacing:normal;word-spacing:normal;text-transform:none;direction:ltr;block-progression:tb;writing-mode:lr-tb;baseline-shift:baseline;text-anchor:start;white-space:normal;clip-rule:nonzero;display:inline;overflow:visible;visibility:visible;opacity:1;isolation:auto;mix-blend-mode:normal;color-interpolation:sRGB;color-interpolation-filters:linearRGB;solid-color:#000000;solid-opacity:1;fill:#000000;fill-opacity:1;fill-rule:nonzero;stroke:none;stroke-width:1;stroke-linecap:round;stroke-linejoin:round;stroke-miterlimit:4;stroke-dasharray:none;stroke-dashoffset:0;stroke-opacity:1;color-rendering:auto;image-rendering:auto;shape-rendering:auto;text-rendering:auto;enable-background:accumulate" transform="translate(0,1020.3622)"/></g></svg>